<mxfile host="Electron" modified="2025-02-09T12:37:22.577Z" agent="Mozilla/5.0 (X11; Linux x86_64) AppleWebKit/537.36 (KHTML, like Gecko) draw.io/23.1.5 Chrome/120.0.6099.109 Electron/28.1.0 Safari/537.36" etag="hqIc8y9qzRMlWglxEYEu" version="23.1.5" type="device">
  <diagram name="Page-1" id="IBKRcUNVdAqnfk5M_Lge">
    <mxGraphModel dx="1486" dy="757" grid="1" gridSize="10" guides="1" tooltips="1" connect="1" arrows="1" fold="1" page="1" pageScale="1" pageWidth="4681" pageHeight="3300" math="0" shadow="0">
      <root>
        <mxCell id="0" />
        <mxCell id="1" parent="0" />
        <mxCell id="9Ny_pZFLT_8qexPegXzt-3" value="" style="edgeStyle=orthogonalEdgeStyle;rounded=0;orthogonalLoop=1;jettySize=auto;html=1;" parent="1" source="9Ny_pZFLT_8qexPegXzt-1" target="9Ny_pZFLT_8qexPegXzt-2" edge="1">
          <mxGeometry relative="1" as="geometry" />
        </mxCell>
        <mxCell id="stjVt8Z1Z_6WJz-xB790-2" value="" style="edgeStyle=orthogonalEdgeStyle;rounded=0;orthogonalLoop=1;jettySize=auto;html=1;" edge="1" parent="1" source="9Ny_pZFLT_8qexPegXzt-1" target="stjVt8Z1Z_6WJz-xB790-1">
          <mxGeometry relative="1" as="geometry" />
        </mxCell>
        <mxCell id="stjVt8Z1Z_6WJz-xB790-4" value="" style="edgeStyle=orthogonalEdgeStyle;rounded=0;orthogonalLoop=1;jettySize=auto;html=1;" edge="1" parent="1" source="9Ny_pZFLT_8qexPegXzt-1" target="stjVt8Z1Z_6WJz-xB790-3">
          <mxGeometry relative="1" as="geometry" />
        </mxCell>
        <mxCell id="9Ny_pZFLT_8qexPegXzt-1" value="cart-service" style="shape=module;align=left;spacingLeft=20;align=center;verticalAlign=top;whiteSpace=wrap;html=1;" parent="1" vertex="1">
          <mxGeometry x="590" y="250" width="100" height="50" as="geometry" />
        </mxCell>
        <mxCell id="9Ny_pZFLT_8qexPegXzt-2" value="product-service" style="shape=module;align=left;spacingLeft=20;align=center;verticalAlign=top;whiteSpace=wrap;html=1;" parent="1" vertex="1">
          <mxGeometry x="770" y="250" width="100" height="50" as="geometry" />
        </mxCell>
        <mxCell id="stjVt8Z1Z_6WJz-xB790-1" value="order-service&lt;div&gt;&lt;br&gt;&lt;/div&gt;" style="shape=module;align=left;spacingLeft=20;align=center;verticalAlign=top;whiteSpace=wrap;html=1;" vertex="1" parent="1">
          <mxGeometry x="590" y="380" width="100" height="50" as="geometry" />
        </mxCell>
        <mxCell id="stjVt8Z1Z_6WJz-xB790-3" value="person-service" style="shape=module;align=left;spacingLeft=20;align=center;verticalAlign=top;whiteSpace=wrap;html=1;" vertex="1" parent="1">
          <mxGeometry x="590" y="120" width="100" height="50" as="geometry" />
        </mxCell>
      </root>
    </mxGraphModel>
  </diagram>
</mxfile>
